<?xml version="1.0" standalone="no"?>
<!DOCTYPE svg PUBLIC "-//W3C//DTD SVG 20010904//EN"
 "http://www.w3.org/TR/2001/REC-SVG-20010904/DTD/svg10.dtd">
<svg version="1.0" xmlns="http://www.w3.org/2000/svg"
 width="512.000000pt" height="512.000000pt" viewBox="0 0 512.000000 512.000000"
 preserveAspectRatio="xMidYMid meet">

<g transform="translate(0.000000,512.000000) scale(0.100000,-0.100000)"
fill="#000000" stroke="none">
<path d="M3325 4231 c-322 -87 -542 -354 -562 -681 -13 -218 60 -409 217 -570
139 -142 291 -209 495 -218 137 -5 238 14 352 67 329 154 500 529 402 882 -66
237 -249 424 -499 509 -94 32 -306 38 -405 11z m284 -286 c70 -17 137 -50 188
-94 l32 -27 -320 -319 -320 -320 -20 25 c-75 93 -109 185 -109 294 0 179 96
333 254 407 105 49 188 59 295 34z"/>
<path d="M1365 3739 c-570 -46 -571 -46 -631 -73 -107 -49 -122 -68 -412 -506
-152 -228 -284 -435 -295 -459 -53 -120 7 -282 126 -340 45 -22 736 -136 770
-127 16 4 17 0 10 -42 -12 -73 -9 -123 11 -177 17 -44 81 -112 515 -548 354
-356 509 -504 541 -520 36 -18 62 -22 135 -22 l90 0 56 -364 c32 -201 65 -380
74 -401 54 -120 202 -185 325 -143 81 28 872 554 927 617 44 50 80 130 89 200
3 23 20 227 38 453 29 378 30 412 15 400 -10 -6 -55 -42 -101 -78 -177 -141
-415 -292 -621 -395 l-110 -56 -877 877 c-482 481 -879 872 -884 868 -15 -15
45 113 103 217 112 203 233 386 361 545 31 39 59 76 64 83 9 16 -24 15 -319
-9z m-294 -1046 c-12 -20 -14 -14 -5 12 4 9 9 14 11 11 3 -2 0 -13 -6 -23z
m-74 -225 c-3 -8 -6 -5 -6 6 -1 11 2 17 5 13 3 -3 4 -12 1 -19z m-30 -110 c-3
-8 -6 -5 -6 6 -1 11 2 17 5 13 3 -3 4 -12 1 -19z m-10 -50 c-3 -8 -6 -5 -6 6
-1 11 2 17 5 13 3 -3 4 -12 1 -19z m-10 -40 c-3 -8 -6 -5 -6 6 -1 11 2 17 5
13 3 -3 4 -12 1 -19z"/>
</g>
</svg>
